<?xml version="1.0" encoding="iso-8859-1"?>
<!-- Uploaded to: SVG Repo, www.svgrepo.com, Generator: SVG Repo Mixer Tools -->
<!DOCTYPE svg PUBLIC "-//W3C//DTD SVG 1.1//EN" "http://www.w3.org/Graphics/SVG/1.1/DTD/svg11.dtd">
<svg fill="#000000" height="800px" width="800px" version="1.1" id="Capa_1" xmlns="http://www.w3.org/2000/svg" xmlns:xlink="http://www.w3.org/1999/xlink" 
	 viewBox="0 0 60 60" xml:space="preserve">
<path d="M52.236,1l-1.789-0.895c-0.012-0.006-0.025-0.008-0.037-0.013c-0.022-0.01-0.045-0.015-0.067-0.023
	c-0.099-0.036-0.2-0.057-0.303-0.061C50.026,0.007,50.014,0,50,0h-3c-0.552,0-1,0.447-1,1H14c0-0.553-0.448-1-1-1h-3
	C9.986,0,9.974,0.007,9.96,0.008C9.857,0.012,9.756,0.033,9.657,0.069C9.635,0.077,9.612,0.083,9.59,0.093
	C9.578,0.098,9.565,0.099,9.553,0.105L7.764,1H0v59h5v-2.382l4.553,2.276c0.009,0.004,0.019,0.002,0.028,0.007
	C9.709,59.961,9.849,60,10,60h3c0.552,0,1-0.447,1-1v-2h32v2c0,0.553,0.448,1,1,1h3c0.151,0,0.291-0.039,0.419-0.099
	c0.009-0.004,0.019-0.002,0.028-0.007L55,57.618V60h5V1H52.236z M3.553,3.105C3.552,3.106,3.552,3.106,3.553,3.105L3,3.382V4v52v2H2
	V3h1.764L3.553,3.105z M12,4v50v3v1h-1V2h1V4z M14,6h15v8H14V6z M14,16h15v3h-2v-1c0-0.553-0.448-1-1-1s-1,0.447-1,1v1h-1v-1
	c0-0.553-0.448-1-1-1s-1,0.447-1,1v1h-1v-1c0-0.553-0.448-1-1-1s-1,0.447-1,1v1h-1v-1c0-0.553-0.448-1-1-1s-1,0.447-1,1v1h-2V16z
	 M14,21h2v2c0,0.553,0.448,1,1,1s1-0.447,1-1v-2h1v2c0,0.553,0.448,1,1,1s1-0.447,1-1v-2h1v2c0,0.553,0.448,1,1,1s1-0.447,1-1v-2h1
	v2c0,0.553,0.448,1,1,1s1-0.447,1-1v-2h2v3v2v8v2v8h-1.184C27.928,43.686,28,43.352,28,43c0-1.654-1.346-3-3-3h-7
	c-1.654,0-3,1.346-3,3c0,0.352,0.072,0.686,0.184,1H14V21z M14,46h4h7h4v6H14V46z M46,55H14v-1h15h2h15V55z M46,52H31v-6h15V52z
	 M46,44H31v-8h4h7h4V44z M32,29c0,0.771,0.301,1.468,0.78,2c-0.48,0.532-0.78,1.229-0.78,2c0,0.352,0.072,0.686,0.184,1H31v-8h4
	C33.346,26,32,27.346,32,29z M46,34h-1.184C44.928,33.686,45,33.352,45,33c0-0.771-0.301-1.468-0.78-2c0.48-0.532,0.78-1.229,0.78-2
	c0-1.654-1.346-3-3-3h4V34z M46,24H31v-8h15V24z M32,11c0-0.553,0.448-1,1-1h11c0.552,0,1,0.447,1,1s-0.448,1-1,1H33
	C32.448,12,32,11.553,32,11z M46,4H31h-2H14V3h32V4z M49,58h-1v-1v-3v-8V36v-2v-8v-2v-8v-2V4V2h1V58z M58,58h-1v-2V4V3.382
	l-0.552-0.276c0,0-0.001,0-0.001-0.001L56.236,3H58V58z"/>
</svg>